<?xml version="1.0" standalone="no"?>
<!DOCTYPE svg PUBLIC "-//W3C//DTD SVG 20010904//EN"
 "http://www.w3.org/TR/2001/REC-SVG-20010904/DTD/svg10.dtd">
<svg version="1.0" xmlns="http://www.w3.org/2000/svg"
 width="48.000000pt" height="48.000000pt" viewBox="0 0 48.000000 48.000000"
 preserveAspectRatio="xMidYMid meet">

<g transform="translate(0.000000,48.000000) scale(0.100000,-0.100000)"
fill="#000000" stroke="none">
<path d="M160 428 c-83 -23 -140 -99 -140 -187 0 -85 35 -142 112 -182 36 -18
110 -25 142 -13 28 11 7 23 -29 17 -55 -9 -103 6 -144 43 -50 45 -65 81 -59
149 7 82 64 146 145 161 81 15 180 -51 202 -134 7 -23 16 -42 21 -42 12 0 13
-3 -5 57 -18 60 -74 116 -132 132 -45 13 -66 13 -113 -1z"/>
<path d="M133 370 c-37 -22 -73 -86 -73 -130 0 -82 65 -150 146 -153 29 -1 49
3 51 10 3 8 -6 10 -29 7 -69 -10 -148 62 -148 135 0 80 67 137 152 129 57 -6
83 -26 112 -88 17 -38 21 -41 24 -22 5 31 -27 82 -68 109 -43 30 -121 31 -167
3z"/>
<path d="M174 340 c-56 -22 -84 -117 -49 -166 18 -27 66 -47 97 -42 24 5 21 7
-37 24 -20 6 -36 21 -48 46 -17 35 -17 39 -2 72 32 67 120 73 157 10 25 -42
41 -44 26 -3 -18 53 -88 82 -144 59z"/>
<path d="M220 220 c0 -21 114 -200 128 -200 7 0 12 15 13 38 2 61 12 82 53
105 76 43 62 52 -91 63 -80 5 -103 4 -103 -6z"/>
</g>
</svg>
